<svg width="800" height="600" viewBox="0 0 800 600" fill="none" xmlns="http://www.w3.org/2000/svg">
  <!-- Background Elements -->
  <circle cx="400" cy="300" r="250" fill="#F3F4F6" opacity="0.5"/>
  <circle cx="400" cy="300" r="200" fill="#E5E7EB" opacity="0.5"/>
  
  <!-- Clock/Time Banking Symbol -->
  <circle cx="400" cy="300" r="150" stroke="#4F46E5" stroke-width="8" fill="white"/>
  <circle cx="400" cy="300" r="10" fill="#4F46E5"/>
  <line x1="400" y1="300" x2="400" y2="200" stroke="#4F46E5" stroke-width="8" stroke-linecap="round"/>
  <line x1="400" y1="300" x2="480" y2="350" stroke="#4F46E5" stroke-width="8" stroke-linecap="round"/>
  
  <!-- Person 1 (Left) -->
  <circle cx="250" cy="300" r="50" fill="#4F46E5"/>
  <circle cx="250" cy="230" r="30" fill="#4F46E5"/>
  <rect x="220" y="320" width="60" height="30" rx="10" fill="white"/>
  <text x="225" y="342" font-family="Arial" font-size="20" fill="#4F46E5" font-weight="bold">Math</text>
  
  <!-- Person 2 (Right) -->
  <circle cx="550" cy="300" r="50" fill="#4F46E5"/>
  <circle cx="550" cy="230" r="30" fill="#4F46E5"/>
  <rect x="510" y="320" width="80" height="30" rx="10" fill="white"/>
  <text x="515" y="342" font-family="Arial" font-size="20" fill="#4F46E5" font-weight="bold">Coding</text>
  
  <!-- Exchange Arrows -->
  <path d="M320 280 L380 280 L360 260" stroke="#4F46E5" stroke-width="6" stroke-linecap="round" stroke-linejoin="round" fill="none"/>
  <path d="M480 320 L420 320 L440 340" stroke="#4F46E5" stroke-width="6" stroke-linecap="round" stroke-linejoin="round" fill="none"/>
  
  <!-- Time Credits -->
  <circle cx="400" cy="240" r="25" fill="#FCD34D"/>
  <text x="390" y="248" font-family="Arial" font-size="20" fill="#4F46E5" font-weight="bold">1h</text>
  
  <circle cx="400" cy="360" r="25" fill="#FCD34D"/>
  <text x="390" y="368" font-family="Arial" font-size="20" fill="#4F46E5" font-weight="bold">1h</text>
</svg>
